version 1.00
320
[0,1.16,0][0,1,0][0.126872,0.200724,0][0.343978,1.05866,0.113137][0.220472,0.692913,0.685039][0.22166,0.168139,0][0.35846,1.10323,0][0.307087,0.952756,0][0.223614,0.200724,0][0,1.16,0][0,1,0][0.126872,0.200724,0][0,1.11314,0.113137][0,0.724409,0.685039][0.128826,0.168139,0][0.343978,1.05866,0.113137][0.220472,0.692913,0.685039][0.22166,0.168139,0][0,1.11314,0.113137][0,0.724409,0.685039][0.122963,0.569147,0][0.309018,0.951058,0.16][0.015748,0.0393701,1][0.21108,0.536847,0][0.343978,1.05866,0.113137][0.220472,0.692913,0.685039][0.215798,0.569147,0][0,1.11314,0.113137][0,0.724409,0.685039][0.122963,0.569147,0][0,1,0.16][0,0.0393701,1][0.127681,0.536847,0][0.309018,0.951058,0.16][0.015748,0.0393701,1][0.21108,0.536847,0][0,1,0.16][0,0.0393701,1][0.895866,0.326279,0][0.274056,0.843456,0.113137][-0.212598,-0.653543,0.724409][0.817185,0.358579,0][0.309018,0.951058,0.16][0.015748,0.0393701,1][0.812467,0.326279,0][0,1,0.16][0,0.0393701,1][0.895866,0.326279,0][0,0.886862,0.113137][0,-0.685039,0.724409][0.891149,0.358579,0][0.274056,0.843456,0.113137][-0.212598,-0.653543,0.724409][0.817185,0.358579,0][0,0.886862,0.113137][0,-0.685039,0.724409][0.516945,0.904702,0][0.259574,0.798888,0][-0.307087,-0.952756,0][0.444936,0.937287,0][0.274056,0.843456,0.113137][-0.212598,-0.653543,0.724409][0.442982,0.904702,0][0,0.886862,0.113137][0,-0.685039,0.724409][0.516945,0.904702,0][0,0.84,0][0,-1,0][0.514991,0.937287,0][0.259574,0.798888,0][-0.307087,-0.952756,0][0.444936,0.937287,0][0,0.84,0][0,-1,0][0.411463,0.798992,0][0.274056,0.843456,-0.113137][-0.212598,-0.653543,-0.724409][0.339454,0.831576,0][0.259574,0.798888,0][-0.307087,-0.952756,0][0.341408,0.798992,0][0,0.84,0][0,-1,0][0.411463,0.798992,0][0,0.886862,-0.113137][0,-0.685039,-0.724409][0.413417,0.831576,0][0.274056,0.843456,-0.113137][-0.212598,-0.653543,-0.724409][0.339454,0.831576,0][0,0.886862,-0.113137][0,-0.685039,-0.724409][0.521663,0.694134,0][0.309018,0.951058,-0.16][0.015748,0.0393701,-1][0.442982,0.726434,0][0.274056,0.843456,-0.113137][-0.212598,-0.653543,-0.724409][0.4477,0.694134,0][0,0.886862,-0.113137][0,-0.685039,-0.724409][0.521663,0.694134,0][0,1,-0.16][0,0.0393701,-1][0.526381,0.726434,0][0.309018,0.951058,-0.16][0.015748,0.0393701,-1][0.442982,0.726434,0][0,1,-0.16][0,0.0393701,-1][0.365332,0.358579,0][0.343978,1.05866,-0.113137][0.220472,0.692913,-0.685039][0.453449,0.326279,0][0.309018,0.951058,-0.16][0.015748,0.0393701,-1][0.448731,0.358579,0][0,1,-0.16][0,0.0393701,-1][0.365332,0.358579,0][0,1.11314,-0.113137][0,0.724409,-0.685039][0.360615,0.326279,0][0.343978,1.05866,-0.113137][0.220472,0.692913,-0.685039][0.453449,0.326279,0][0,1.11314,-0.113137][0,0.724409,-0.685039][0.128826,0.30615,0][0.35846,1.10323,0][0.307087,0.952756,0][0.223614,0.273566,0][0.343978,1.05866,-0.113137][0.220472,0.692913,-0.685039][0.22166,0.30615,0][0,1.11314,-0.113137][0,0.724409,-0.685039][0.128826,0.30615,0][0,1.16,0][0,1,0][0.126872,0.273566,0][0.35846,1.10323,0][0.307087,0.952756,0][0.223614,0.273566,0][0.35846,1.10323,0][0.307087,0.952756,0][0.126872,0.0425843,0][0.654286,0.900548,0.113137][0.425197,0.590551,0.685039][0.22166,0.00999999,0][0.681832,0.93846,0][0.590551,0.811024,0][0.223614,0.0425843,0][0.35846,1.10323,0][0.307087,0.952756,0][0.126872,0.0425843,0][0.343978,1.05866,0.113137][0.220472,0.692913,0.685039][0.128826,0.00999999,0][0.654286,0.900548,0.113137][0.425197,0.590551,0.685039][0.22166,0.00999999,0][0.343978,1.05866,0.113137][0.220472,0.692913,0.685039][0.01,0.621576,0][0.587786,0.809018,0.16][0.023622,0.0314961,1][0.0981166,0.589276,0][0.654286,0.900548,0.113137][0.425197,0.590551,0.685039][0.102834,0.621576,0][0.343978,1.05866,0.113137][0.220472,0.692913,0.685039][0.01,0.621576,0][0.309018,0.951058,0.16][0.015748,0.0393701,1][0.0147178,0.589276,0][0.587786,0.809018,0.16][0.023622,0.0314961,1][0.0981166,0.589276,0][0.309018,0.951058,0.16][0.015748,0.0393701,1][0.778995,0.378992,0][0.521284,0.717486,0.113137][-0.401575,-0.559055,0.724409][0.700314,0.411292,0][0.587786,0.809018,0.16][0.023622,0.0314961,1][0.695596,0.378992,0][0.309018,0.951058,0.16][0.015748,0.0393701,1][0.778995,0.378992,0][0.274056,0.843456,0.113137][-0.212598,-0.653543,0.724409][0.774277,0.411292,0][0.521284,0.717486,0.113137][-0.401575,-0.559055,0.724409][0.700314,0.411292,0][0.274056,0.843456,0.113137][-0.212598,-0.653543,0.724409][0.893314,0.904702,0][0.49374,0.679574,0][-0.590551,-0.811024,0][0.821305,0.937287,0][0.521284,0.717486,0.113137][-0.401575,-0.559055,0.724409][0.81935,0.904702,0][0.274056,0.843456,0.113137][-0.212598,-0.653543,0.724409][0.893314,0.904702,0][0.259574,0.798888,0][-0.307087,-0.952756,0][0.89136,0.937287,0][0.49374,0.679574,0][-0.590551,-0.811024,0][0.821305,0.937287,0][0.259574,0.798888,0][-0.307087,-0.952756,0][0.703175,0.799276,0][0.521284,0.717486,-0.113137][-0.401575,-0.559055,-0.724409][0.631166,0.831861,0][0.49374,0.679574,0][-0.590551,-0.811024,0][0.63312,0.799276,0][0.259574,0.798888,0][-0.307087,-0.952756,0][0.703175,0.799276,0][0.274056,0.843456,-0.113137][-0.212598,-0.653543,-0.724409][0.705129,0.831861,0][0.521284,0.717486,-0.113137][-0.401575,-0.559055,-0.724409][0.631166,0.831861,0][0.274056,0.843456,-0.113137][-0.212598,-0.653543,-0.724409][0.531098,0.589276,0][0.587786,0.809018,-0.16][0.023622,0.0314961,-1][0.452417,0.621576,0][0.521284,0.717486,-0.113137][-0.401575,-0.559055,-0.724409][0.457135,0.589276,0][0.274056,0.843456,-0.113137][-0.212598,-0.653543,-0.724409][0.531098,0.589276,0][0.309018,0.951058,-0.16][0.015748,0.0393701,-1][0.535816,0.621576,0][0.587786,0.809018,-0.16][0.023622,0.0314961,-1][0.452417,0.621576,0][0.309018,0.951058,-0.16][0.015748,0.0393701,-1][0.482204,0.305866,0][0.654286,0.900548,-0.113137][0.425197,0.590551,-0.685039][0.57032,0.273566,0][0.587786,0.809018,-0.16][0.023622,0.0314961,-1][0.565603,0.305866,0][0.309018,0.951058,-0.16][0.015748,0.0393701,-1][0.482204,0.305866,0][0.343978,1.05866,-0.113137][0.220472,0.692913,-0.685039][0.477486,0.273566,0][0.654286,0.900548,-0.113137][0.425197,0.590551,-0.685039][0.57032,0.273566,0][0.343978,1.05866,-0.113137][0.220472,0.692913,-0.685039][0.0119542,0.148011,0][0.681832,0.93846,0][0.590551,0.811024,0][0.106743,0.115426,0][0.654286,0.900548,-0.113137][0.425197,0.590551,-0.685039][0.104789,0.148011,0][0.343978,1.05866,-0.113137][0.220472,0.692913,-0.685039][0.0119542,0.148011,0][0.35846,1.10323,0][0.307087,0.952756,0][0.01,0.115426,0][0.681832,0.93846,0][0.590551,0.811024,0][0.106743,0.115426,0][0.681832,0.93846,0][0.590551,0.811024,0][0.01,0.411576,0][0.900548,0.654286,0.113137][0.590551,0.425197,0.685039][0.104789,0.378992,0][0.93846,0.681832,0][0.811024,0.590551,0][0.106743,0.411576,0][0.681832,0.93846,0][0.590551,0.811024,0][0.01,0.411576,0][0.654286,0.900548,0.113137][0.425197,0.590551,0.685039][0.0119542,0.378992,0][0.900548,0.654286,0.113137][0.590551,0.425197,0.685039][0.104789,0.378992,0][0.654286,0.900548,0.113137][0.425197,0.590551,0.685039][0.235926,0.569147,0][0.809018,0.587786,0.16][0.0314961,0.023622,1][0.324043,0.536847,0][0.900548,0.654286,0.113137][0.590551,0.425197,0.685039][0.328761,0.569147,0][0.654286,0.900548,0.113137][0.425197,0.590551,0.685039][0.235926,0.569147,0][0.587786,0.809018,0.16][0.023622,0.0314961,1][0.240644,0.536847,0][0.809018,0.587786,0.16][0.0314961,0.023622,1][0.324043,0.536847,0][0.587786,0.809018,0.16][0.023622,0.0314961,1][0.869179,0.431705,0][0.717486,0.521284,0.113137][-0.559055,-0.401575,0.724409][0.790497,0.464005,0][0.809018,0.587786,0.16][0.0314961,0.023622,1][0.78578,0.431705,0][0.587786,0.809018,0.16][0.023622,0.0314961,1][0.869179,0.431705,0][0.521284,0.717486,0.113137][-0.401575,-0.559055,0.724409][0.864461,0.464005,0][0.717486,0.521284,0.113137][-0.559055,-0.401575,0.724409][0.790497,0.464005,0][0.521284,0.717486,0.113137][-0.401575,-0.559055,0.724409][0.611037,0.746563,0][0.679574,0.49374,0][-0.811024,-0.590551,0][0.539028,0.779147,0][0.717486,0.521284,0.113137][-0.559055,-0.401575,0.724409][0.537074,0.746563,0][0.521284,0.717486,0.113137][-0.401575,-0.559055,0.724409][0.611037,0.746563,0][0.49374,0.679574,0][-0.590551,-0.811024,0][0.609083,0.779147,0][0.679574,0.49374,0][-0.811024,-0.590551,0][0.539028,0.779147,0][0.49374,0.679574,0][-0.590551,-0.811024,0][0.988004,0.326279,0][0.717486,0.521284,-0.113137][-0.559055,-0.401575,-0.724409][0.915995,0.358863,0][0.679574,0.49374,0][-0.811024,-0.590551,0][0.917949,0.326279,0][0.49374,0.679574,0][-0.590551,-0.811024,0][0.988004,0.326279,0][0.521284,0.717486,-0.113137][-0.401575,-0.559055,-0.724409][0.989958,0.358863,0][0.717486,0.521284,-0.113137][-0.559055,-0.401575,-0.724409][0.915995,0.358863,0][0.521284,0.717486,-0.113137][-0.401575,-0.559055,-0.724409][0.981332,0.378992,0][0.809018,0.587786,-0.16][0.0314961,0.023622,-1][0.902651,0.411292,0][0.717486,0.521284,-0.113137][-0.559055,-0.401575,-0.724409][0.907369,0.378992,0][0.521284,0.717486,-0.113137][-0.401575,-0.559055,-0.724409][0.981332,0.378992,0][0.587786,0.809018,-0.16][0.023622,0.0314961,-1][0.98605,0.411292,0][0.809018,0.587786,-0.16][0.0314961,0.023622,-1][0.902651,0.411292,0][0.587786,0.809018,-0.16][0.023622,0.0314961,-1][0.127681,0.621576,0][0.900548,0.654286,-0.113137][0.590551,0.425197,-0.685039][0.215798,0.589276,0][0.809018,0.587786,-0.16][0.0314961,0.023622,-1][0.21108,0.621576,0][0.587786,0.809018,-0.16][0.023622,0.0314961,-1][0.127681,0.621576,0][0.654286,0.900548,-0.113137][0.425197,0.590551,-0.685039][0.122963,0.589276,0][0.900548,0.654286,-0.113137][0.590551,0.425197,-0.685039][0.215798,0.589276,0][0.654286,0.900548,-0.113137][0.425197,0.590551,-0.685039][0.0119542,0.464289,0][0.93846,0.681832,0][0.811024,0.590551,0][0.106743,0.431705,0][0.900548,0.654286,-0.113137][0.590551,0.425197,-0.685039][0.104789,0.464289,0][0.654286,0.900548,-0.113137][0.425197,0.590551,-0.685039][0.0119542,0.464289,0][0.681832,0.93846,0][0.590551,0.811024,0][0.01,0.431705,0][0.93846,0.681832,0][0.811024,0.590551,0][0.106743,0.431705,0][0.93846,0.681832,0][0.811024,0.590551,0][0.360615,0.0952975,0][1.05866,0.343978,0.113137][0.692913,0.220472,0.685039][0.455403,0.0627131,0][1.10323,0.35846,0][0.952756,0.307087,0][0.457357,0.0952975,0][0.93846,0.681832,0][0.811024,0.590551,0][0.360615,0.0952975,0][0.900548,0.654286,0.113137][0.590551,0.425197,0.685039][0.362569,0.0627131,0][1.05866,0.343978,0.113137][0.692913,0.220472,0.685039][0.455403,0.0627131,0][0.900548,0.654286,0.113137][0.590551,0.425197,0.685039][0.820284,0.20044,0][0.951058,0.309018,0.16][0.0393701,0.015748,1][0.908401,0.168139,0][1.05866,0.343978,0.113137][0.692913,0.220472,0.685039][0.913118,0.20044,0][0.900548,0.654286,0.113137][0.590551,0.425197,0.685039][0.820284,0.20044,0][0.809018,0.587786,0.16][0.0314961,0.023622,1][0.825002,0.168139,0][0.951058,0.309018,0.16][0.0393701,0.015748,1][0.908401,0.168139,0][0.809018,0.587786,0.16][0.0314961,0.023622,1][0.422853,0.694134,0][0.843456,0.274056,0.113137][-0.653543,-0.212598,0.724409][0.344172,0.726434,0][0.951058,0.309018,0.16][0.0393701,0.015748,1][0.339454,0.694134,0][0.809018,0.587786,0.16][0.0314961,0.023622,1][0.422853,0.694134,0][0.717486,0.521284,0.113137][-0.559055,-0.401575,0.724409][0.418135,0.726434,0][0.843456,0.274056,0.113137][-0.653543,-0.212598,0.724409][0.344172,0.726434,0][0.717486,0.521284,0.113137][-0.559055,-0.401575,0.724409][0.893314,0.957416,0][0.798888,0.259574,0][-0.952756,-0.307087,0][0.821304,0.99,0][0.843456,0.274056,0.113137][-0.653543,-0.212598,0.724409][0.81935,0.957416,0][0.717486,0.521284,0.113137][-0.559055,-0.401575,0.724409][0.893314,0.957416,0][0.679574,0.49374,0][-0.811024,-0.590551,0][0.891359,0.99,0][0.798888,0.259574,0][-0.952756,-0.307087,0][0.821304,0.99,0][0.679574,0.49374,0][-0.811024,-0.590551,0][0.797267,0.851989,0][0.843456,0.274056,-0.113137][-0.653543,-0.212598,-0.724409][0.725258,0.884574,0][0.798888,0.259574,0][-0.952756,-0.307087,0][0.727212,0.851989,0][0.679574,0.49374,0][-0.811024,-0.590551,0][0.797267,0.851989,0][0.717486,0.521284,-0.113137][-0.559055,-0.401575,-0.724409][0.799222,0.884574,0][0.843456,0.274056,-0.113137][-0.653543,-0.212598,-0.724409][0.725258,0.884574,0][0.717486,0.521284,-0.113137][-0.559055,-0.401575,-0.724409][0.521663,0.641705,0][0.951058,0.309018,-0.16][0.0393701,0.015748,-1][0.442982,0.674005,0][0.843456,0.274056,-0.113137][-0.653543,-0.212598,-0.724409][0.4477,0.641705,0][0.717486,0.521284,-0.113137][-0.559055,-0.401575,-0.724409][0.521663,0.641705,0][0.809018,0.587786,-0.16][0.0314961,0.023622,-1][0.526381,0.674005,0][0.951058,0.309018,-0.16][0.0393701,0.015748,-1][0.442982,0.674005,0][0.809018,0.587786,-0.16][0.0314961,0.023622,-1][0.599075,0.253153,0][1.05866,0.343978,-0.113137][0.692913,0.220472,-0.685039][0.687192,0.220853,0][0.951058,0.309018,-0.16][0.0393701,0.015748,-1][0.682474,0.253153,0][0.809018,0.587786,-0.16][0.0314961,0.023622,-1][0.599075,0.253153,0][0.900548,0.654286,-0.113137][0.590551,0.425197,-0.685039][0.594358,0.220853,0][1.05866,0.343978,-0.113137][0.692913,0.220472,-0.685039][0.687192,0.220853,0][0.900548,0.654286,-0.113137][0.590551,0.425197,-0.685039][0.245697,0.253437,0][1.10323,0.35846,0][0.952756,0.307087,0][0.340486,0.220853,0][1.05866,0.343978,-0.113137][0.692913,0.220472,-0.685039][0.338532,0.253437,0][0.900548,0.654286,-0.113137][0.590551,0.425197,-0.685039][0.245697,0.253437,0][0.93846,0.681832,0][0.811024,0.590551,0][0.243743,0.220853,0][1.10323,0.35846,0][0.952756,0.307087,0][0.340486,0.220853,0][1.10323,0.35846,0][0.952756,0.307087,0][0.126872,0.253437,0][1.11314,0,0.113137][0.724409,0,0.685039][0.22166,0.220853,0][1.16,0,0][1,0,0][0.223614,0.253437,0][1.10323,0.35846,0][0.952756,0.307087,0][0.126872,0.253437,0][1.05866,0.343978,0.113137][0.692913,0.220472,0.685039][0.128826,0.220853,0][1.11314,0,0.113137][0.724409,0,0.685039][0.22166,0.220853,0][1.05866,0.343978,0.113137][0.692913,0.220472,0.685039][0.352798,0.464005,0][1,0,0.16][0.0393701,0,1][0.440915,0.431705,0][1.11314,0,0.113137][0.724409,0,0.685039][0.445632,0.464005,0][1.05866,0.343978,0.113137][0.692913,0.220472,0.685039][0.352798,0.464005,0][0.951058,0.309018,0.16][0.0393701,0.015748,1][0.357516,0.431705,0][1,0,0.16][0.0393701,0,1][0.440915,0.431705,0][0.951058,0.309018,0.16][0.0393701,0.015748,1][0.0933989,0.746563,0][0.886862,0,0.113137][-0.685039,0,0.724409][0.0147178,0.778863,0][1,0,0.16][0.0393701,0,1][0.01,0.746563,0][0.951058,0.309018,0.16][0.0393701,0.015748,1][0.0933989,0.746563,0][0.843456,0.274056,0.113137][-0.653543,-0.212598,0.724409][0.0886811,0.778863,0][0.886862,0,0.113137][-0.685039,0,0.724409][0.0147178,0.778863,0][0.843456,0.274056,0.113137][-0.653543,-0.212598,0.724409][0.705129,0.957416,0][0.84,0,0][-1,0,0][0.63312,0.99,0][0.886862,0,0.113137][-0.685039,0,0.724409][0.631166,0.957416,0][0.843456,0.274056,0.113137][-0.653543,-0.212598,0.724409][0.705129,0.957416,0][0.798888,0.259574,0][-0.952756,-0.307087,0][0.703175,0.99,0][0.84,0,0][-1,0,0][0.63312,0.99,0][0.798888,0.259574,0][-0.952756,-0.307087,0][0.609083,0.851989,0][0.886862,0,-0.113137][-0.685039,0,-0.724409][0.537074,0.884574,0][0.84,0,0][-1,0,0][0.539028,0.851989,0][0.798888,0.259574,0][-0.952756,-0.307087,0][0.609083,0.851989,0][0.843456,0.274056,-0.113137][-0.653543,-0.212598,-0.724409][0.611037,0.884574,0][0.886862,0,-0.113137][-0.685039,0,-0.724409][0.537074,0.884574,0][0.843456,0.274056,-0.113137][-0.653543,-0.212598,-0.724409][0.851117,0.536847,0][1,0,-0.16][0.0393701,0,-1][0.772436,0.569147,0][0.886862,0,-0.113137][-0.685039,0,-0.724409][0.777154,0.536847,0][0.843456,0.274056,-0.113137][-0.653543,-0.212598,-0.724409][0.851117,0.536847,0][0.951058,0.309018,-0.16][0.0393701,0.015748,-1][0.855835,0.569147,0][1,0,-0.16][0.0393701,0,-1][0.772436,0.569147,0][0.951058,0.309018,-0.16][0.0393701,0.015748,-1][0.248461,0.411292,0][1.11314,0,-0.113137][0.724409,0,-0.685039][0.336577,0.378992,0][1,0,-0.16][0.0393701,0,-1][0.33186,0.411292,0][0.951058,0.309018,-0.16][0.0393701,0.015748,-1][0.248461,0.411292,0][1.05866,0.343978,-0.113137][0.692913,0.220472,-0.685039][0.243743,0.378992,0][1.11314,0,-0.113137][0.724409,0,-0.685039][0.336577,0.378992,0][1.05866,0.343978,-0.113137][0.692913,0.220472,-0.685039][0.245697,0.358863,0][1.16,0,0][1,0,0][0.340486,0.326279,0][1.11314,0,-0.113137][0.724409,0,-0.685039][0.338532,0.358863,0][1.05866,0.343978,-0.113137][0.692913,0.220472,-0.685039][0.245697,0.358863,0][1.10323,0.35846,0][0.952756,0.307087,0][0.243743,0.326279,0][1.16,0,0][1,0,0][0.340486,0.326279,0][1.16,0,0][1,0,0][0.243743,0.200724,0][1.05866,-0.343978,0.113137][0.692913,-0.220472,0.685039][0.338532,0.168139,0][1.10323,-0.35846,0][0.952756,-0.307087,0][0.340486,0.200724,0][1.16,0,0][1,0,0][0.243743,0.200724,0][1.11314,0,0.113137][0.724409,0,0.685039][0.245697,0.168139,0][1.05866,-0.343978,0.113137][0.692913,-0.220472,0.685039][0.338532,0.168139,0][1.11314,0,0.113137][0.724409,0,0.685039][0.590449,0.305866,0][0.951058,-0.309018,0.16][0.0393701,-0.015748,1][0.678566,0.273566,0][1.05866,-0.343978,0.113137][0.692913,-0.220472,0.685039][0.683284,0.305866,0][1.11314,0,0.113137][0.724409,0,0.685039][0.590449,0.305866,0][1,0,0.16][0.0393701,0,1][0.595167,0.273566,0][0.951058,-0.309018,0.16][0.0393701,-0.015748,1][0.678566,0.273566,0][1,0,0.16][0.0393701,0,1][0.882522,0.378992,0][0.843456,-0.274056,0.113137][-0.653543,0.212598,0.724409][0.803841,0.411292,0][0.951058,-0.309018,0.16][0.0393701,-0.015748,1][0.799123,0.378992,0][1,0,0.16][0.0393701,0,1][0.882522,0.378992,0][0.886862,0,0.113137][-0.685039,0,0.724409][0.877805,0.411292,0][0.843456,-0.274056,0.113137][-0.653543,0.212598,0.724409][0.803841,0.411292,0][0.886862,0,0.113137][-0.685039,0,0.724409][0.413417,0.851705,0][0.798888,-0.259574,0][-0.952756,0.307087,0][0.341408,0.884289,0][0.843456,-0.274056,0.113137][-0.653543,0.212598,0.724409][0.339454,0.851705,0][0.886862,0,0.113137][-0.685039,0,0.724409][0.413417,0.851705,0][0.84,0,0][-1,0,0][0.411463,0.884289,0][0.798888,-0.259574,0][-0.952756,0.307087,0][0.341408,0.884289,0][0.84,0,0][-1,0,0][0.514991,0.851989,0][0.843456,-0.274056,-0.113137][-0.653543,0.212598,-0.724409][0.442982,0.884574,0][0.798888,-0.259574,0][-0.952756,0.307087,0][0.444936,0.851989,0][0.84,0,0][-1,0,0][0.514991,0.851989,0][0.886862,0,-0.113137][-0.685039,0,-0.724409][0.516945,0.884574,0][0.843456,-0.274056,-0.113137][-0.653543,0.212598,-0.724409][0.442982,0.884574,0][0.886862,0,-0.113137][-0.685039,0,-0.724409][0.625191,0.641705,0][0.951058,-0.309018,-0.16][0.0393701,-0.015748,-1][0.54651,0.674005,0][0.843456,-0.274056,-0.113137][-0.653543,0.212598,-0.724409][0.551227,0.641705,0][0.886862,0,-0.113137][-0.685039,0,-0.724409][0.625191,0.641705,0][1,0,-0.16][0.0393701,0,-1][0.629908,0.674005,0][0.951058,-0.309018,-0.16][0.0393701,-0.015748,-1][0.54651,0.674005,0][1,0,-0.16][0.0393701,0,-1][0.599075,0.147726,0][1.05866,-0.343978,-0.113137][0.692913,-0.220472,-0.685039][0.687192,0.115426,0][0.951058,-0.309018,-0.16][0.0393701,-0.015748,-1][0.682474,0.147726,0][1,0,-0.16][0.0393701,0,-1][0.599075,0.147726,0][1.11314,0,-0.113137][0.724409,0,-0.685039][0.594358,0.115426,0][1.05866,-0.343978,-0.113137][0.692913,-0.220472,-0.685039][0.687192,0.115426,0][1.11314,0,-0.113137][0.724409,0,-0.685039][0.47944,0.148011,0][1.10323,-0.35846,0][0.952756,-0.307087,0][0.574229,0.115426,0][1.05866,-0.343978,-0.113137][0.692913,-0.220472,-0.685039][0.572275,0.148011,0][1.11314,0,-0.113137][0.724409,0,-0.685039][0.47944,0.148011,0][1.16,0,0][1,0,0][0.477486,0.115426,0][1.10323,-0.35846,0][0.952756,-0.307087,0][0.574229,0.115426,0][1.10323,-0.35846,0][0.952756,-0.307087,0][0.126872,0.0952975,0][0.900548,-0.654286,0.113137][0.590551,-0.425197,0.685039][0.22166,0.0627131,0][0.93846,-0.681832,0][0.811024,-0.590551,0][0.223614,0.0952975,0][1.10323,-0.35846,0][0.952756,-0.307087,0][0.126872,0.0952975,0][1.05866,-0.343978,0.113137][0.692913,-0.220472,0.685039][0.128826,0.0627131,0][0.900548,-0.654286,0.113137][0.590551,-0.425197,0.685039][0.22166,0.0627131,0][1.05866,-0.343978,0.113137][0.692913,-0.220472,0.685039][0.356706,0.411292,0][0.809018,-0.587786,0.16][0.0314961,-0.023622,1][0.444823,0.378992,0][0.900548,-0.654286,0.113137][0.590551,-0.425197,0.685039][0.449541,0.411292,0][1.05866,-0.343978,0.113137][0.692913,-0.220472,0.685039][0.356706,0.411292,0][0.951058,-0.309018,0.16][0.0393701,-0.015748,1][0.361424,0.378992,0][0.809018,-0.587786,0.16][0.0314961,-0.023622,1][0.444823,0.378992,0][0.951058,-0.309018,0.16][0.0393701,-0.015748,1][0.206362,0.746563,0][0.717486,-0.521284,0.113137][-0.559055,0.401575,0.724409][0.127681,0.778863,0][0.809018,-0.587786,0.16][0.0314961,-0.023622,1][0.122963,0.746563,0][0.951058,-0.309018,0.16][0.0393701,-0.015748,1][0.206362,0.746563,0][0.843456,-0.274056,0.113137][-0.653543,0.212598,0.724409][0.201644,0.778863,0][0.717486,-0.521284,0.113137][-0.559055,0.401575,0.724409][0.127681,0.778863,0][0.843456,-0.274056,0.113137][-0.653543,0.212598,0.724409][0.799222,0.957416,0][0.679574,-0.49374,0][-0.811024,0.590551,0][0.727212,0.99,0][0.717486,-0.521284,0.113137][-0.559055,0.401575,0.724409][0.725258,0.957416,0][0.843456,-0.274056,0.113137][-0.653543,0.212598,0.724409][0.799222,0.957416,0][0.798888,-0.259574,0][-0.952756,0.307087,0][0.797267,0.99,0][0.679574,-0.49374,0][-0.811024,0.590551,0][0.727212,0.99,0][0.798888,-0.259574,0][-0.952756,0.307087,0][0.307936,0.956847,0][0.717486,-0.521284,-0.113137][-0.559055,0.401575,-0.724409][0.235926,0.989432,0][0.679574,-0.49374,0][-0.811024,0.590551,0][0.237881,0.956847,0][0.798888,-0.259574,0][-0.952756,0.307087,0][0.307936,0.956847,0][0.843456,-0.274056,-0.113137][-0.653543,0.212598,-0.724409][0.30989,0.989432,0][0.717486,-0.521284,-0.113137][-0.559055,0.401575,-0.724409][0.235926,0.989432,0][0.843456,-0.274056,-0.113137][-0.653543,0.212598,-0.724409][0.634626,0.589276,0][0.809018,-0.587786,-0.16][0.0314961,-0.023622,-1][0.555945,0.621576,0][0.717486,-0.521284,-0.113137][-0.559055,0.401575,-0.724409][0.560663,0.589276,0][0.843456,-0.274056,-0.113137][-0.653543,0.212598,-0.724409][0.634626,0.589276,0][0.951058,-0.309018,-0.16][0.0393701,-0.015748,-1][0.639344,0.621576,0][0.809018,-0.587786,-0.16][0.0314961,-0.023622,-1][0.555945,0.621576,0][0.951058,-0.309018,-0.16][0.0393701,-0.015748,-1][0.127681,0.516718,0][0.900548,-0.654286,-0.113137][0.590551,-0.425197,-0.685039][0.215798,0.484418,0][0.809018,-0.587786,-0.16][0.0314961,-0.023622,-1][0.21108,0.516718,0][0.951058,-0.309018,-0.16][0.0393701,-0.015748,-1][0.127681,0.516718,0][1.05866,-0.343978,-0.113137][0.692913,-0.220472,-0.685039][0.122963,0.484418,0][0.900548,-0.654286,-0.113137][0.590551,-0.425197,-0.685039][0.215798,0.484418,0][1.05866,-0.343978,-0.113137][0.692913,-0.220472,-0.685039][0.830055,0.0425843,0][0.93846,-0.681832,0][0.811024,-0.590551,0][0.924843,0.00999999,0][0.900548,-0.654286,-0.113137][0.590551,-0.425197,-0.685039][0.922889,0.0425843,0][1.05866,-0.343978,-0.113137][0.692913,-0.220472,-0.685039][0.830055,0.0425843,0][1.10323,-0.35846,0][0.952756,-0.307087,0][0.828101,0.00999999,0][0.93846,-0.681832,0][0.811024,-0.590551,0][0.924843,0.00999999,0][0.93846,-0.681832,0][0.811024,-0.590551,0][0.594358,0.0952975,0][0.654286,-0.900548,0.113137][0.425197,-0.590551,0.685039][0.689146,0.0627131,0][0.681832,-0.93846,0][0.590551,-0.811024,0][0.6911,0.0952975,0][0.93846,-0.681832,0][0.811024,-0.590551,0][0.594358,0.0952975,0][0.900548,-0.654286,0.113137][0.590551,-0.425197,0.685039][0.596312,0.0627131,0][0.654286,-0.900548,0.113137][0.425197,-0.590551,0.685039][0.689146,0.0627131,0][0.900548,-0.654286,0.113137][0.590551,-0.425197,0.685039][0.582633,0.411292,0][0.587786,-0.809018,0.16][0.023622,-0.0314961,1][0.670749,0.378992,0][0.654286,-0.900548,0.113137][0.425197,-0.590551,0.685039][0.675467,0.411292,0][0.900548,-0.654286,0.113137][0.590551,-0.425197,0.685039][0.582633,0.411292,0][0.809018,-0.587786,0.16][0.0314961,-0.023622,1][0.58735,0.378992,0][0.587786,-0.809018,0.16][0.023622,-0.0314961,1][0.670749,0.378992,0][0.809018,-0.587786,0.16][0.0314961,-0.023622,1][0.422853,0.641705,0][0.521284,-0.717486,0.113137][-0.401575,0.559055,0.724409][0.344172,0.674005,0][0.587786,-0.809018,0.16][0.023622,-0.0314961,1][0.339454,0.641705,0][0.809018,-0.587786,0.16][0.0314961,-0.023622,1][0.422853,0.641705,0][0.717486,-0.521284,0.113137][-0.559055,0.401575,0.724409][0.418135,0.674005,0][0.521284,-0.717486,0.113137][-0.401575,0.559055,0.724409][0.344172,0.674005,0][0.717486,-0.521284,0.113137][-0.559055,0.401575,0.724409][0.30989,0.904134,0][0.49374,-0.679574,0][-0.590551,0.811024,0][0.237881,0.936718,0][0.521284,-0.717486,0.113137][-0.401575,0.559055,0.724409][0.235926,0.904134,0][0.717486,-0.521284,0.113137][-0.559055,0.401575,0.724409][0.30989,0.904134,0][0.679574,-0.49374,0][-0.811024,0.590551,0][0.307936,0.936718,0][0.49374,-0.679574,0][-0.590551,0.811024,0][0.237881,0.936718,0][0.679574,-0.49374,0][-0.811024,0.590551,0][0.89136,0.746563,0][0.521284,-0.717486,-0.113137][-0.401575,0.559055,-0.724409][0.81935,0.779147,0][0.49374,-0.679574,0][-0.590551,0.811024,0][0.821305,0.746563,0][0.679574,-0.49374,0][-0.811024,0.590551,0][0.89136,0.746563,0][0.717486,-0.521284,-0.113137][-0.559055,0.401575,-0.724409][0.893314,0.779147,0][0.521284,-0.717486,-0.113137][-0.401575,0.559055,-0.724409][0.81935,0.779147,0][0.717486,-0.521284,-0.113137][-0.559055,0.401575,-0.724409][0.201644,0.798992,0][0.587786,-0.809018,-0.16][0.023622,-0.0314961,-1][0.122963,0.831292,0][0.521284,-0.717486,-0.113137][-0.401575,0.559055,-0.724409][0.127681,0.798992,0][0.717486,-0.521284,-0.113137][-0.559055,0.401575,-0.724409][0.201644,0.798992,0][0.809018,-0.587786,-0.16][0.0314961,-0.023622,-1][0.206362,0.831292,0][0.587786,-0.809018,-0.16][0.023622,-0.0314961,-1][0.122963,0.831292,0][0.809018,-0.587786,-0.16][0.0314961,-0.023622,-1][0.704222,0.358579,0][0.654286,-0.900548,-0.113137][0.425197,-0.590551,-0.685039][0.792339,0.326279,0][0.587786,-0.809018,-0.16][0.023622,-0.0314961,-1][0.787621,0.358579,0][0.809018,-0.587786,-0.16][0.0314961,-0.023622,-1][0.704222,0.358579,0][0.900548,-0.654286,-0.113137][0.590551,-0.425197,-0.685039][0.699504,0.326279,0][0.654286,-0.900548,-0.113137][0.425197,-0.590551,-0.685039][0.792339,0.326279,0][0.900548,-0.654286,-0.113137][0.590551,-0.425197,-0.685039][0.47944,0.200724,0][0.681832,-0.93846,0][0.590551,-0.811024,0][0.574229,0.168139,0][0.654286,-0.900548,-0.113137][0.425197,-0.590551,-0.685039][0.572275,0.200724,0][0.900548,-0.654286,-0.113137][0.590551,-0.425197,-0.685039][0.47944,0.200724,0][0.93846,-0.681832,0][0.811024,-0.590551,0][0.477486,0.168139,0][0.681832,-0.93846,0][0.590551,-0.811024,0][0.574229,0.168139,0][0.681832,-0.93846,0][0.590551,-0.811024,0][0.01,0.0952975,0][0.343978,-1.05866,0.113137][0.220472,-0.692913,0.685039][0.104789,0.0627131,0][0.35846,-1.10323,0][0.307087,-0.952756,0][0.106743,0.0952975,0][0.681832,-0.93846,0][0.590551,-0.811024,0][0.01,0.0952975,0][0.654286,-0.900548,0.113137][0.425197,-0.590551,0.685039][0.0119542,0.0627131,0][0.343978,-1.05866,0.113137][0.220472,-0.692913,0.685039][0.104789,0.0627131,0][0.654286,-0.900548,0.113137][0.425197,-0.590551,0.685039][0.235926,0.516718,0][0.309018,-0.951058,0.16][0.015748,-0.0393701,1][0.324043,0.484418,0][0.343978,-1.05866,0.113137][0.220472,-0.692913,0.685039][0.328761,0.516718,0][0.654286,-0.900548,0.113137][0.425197,-0.590551,0.685039][0.235926,0.516718,0][0.587786,-0.809018,0.16][0.023622,-0.0314961,1][0.240644,0.484418,0][0.309018,-0.951058,0.16][0.015748,-0.0393701,1][0.324043,0.484418,0][0.587786,-0.809018,0.16][0.023622,-0.0314961,1][0.545252,0.484418,0][0.274056,-0.843456,0.113137][-0.212598,0.653543,0.724409][0.466571,0.516718,0][0.309018,-0.951058,0.16][0.015748,-0.0393701,1][0.461853,0.484418,0][0.587786,-0.809018,0.16][0.023622,-0.0314961,1][0.545252,0.484418,0][0.521284,-0.717486,0.113137][-0.401575,0.559055,0.724409][0.540534,0.516718,0][0.274056,-0.843456,0.113137][-0.212598,0.653543,0.724409][0.466571,0.516718,0][0.521284,-0.717486,0.113137][-0.401575,0.559055,0.724409][0.893314,0.799276,0][0.259574,-0.798888,0][-0.307087,0.952756,0][0.821304,0.831861,0][0.274056,-0.843456,0.113137][-0.212598,0.653543,0.724409][0.81935,0.799276,0][0.521284,-0.717486,0.113137][-0.401575,0.559055,0.724409][0.893314,0.799276,0][0.49374,-0.679574,0][-0.590551,0.811024,0][0.891359,0.831861,0][0.259574,-0.798888,0][-0.307087,0.952756,0][0.821304,0.831861,0][0.49374,-0.679574,0][-0.590551,0.811024,0][0.703175,0.851989,0][0.274056,-0.843456,-0.113137][-0.212598,0.653543,-0.724409][0.631166,0.884574,0][0.259574,-0.798888,0][-0.307087,0.952756,0][0.63312,0.851989,0][0.49374,-0.679574,0][-0.590551,0.811024,0][0.703175,0.851989,0][0.521284,-0.717486,-0.113137][-0.401575,0.559055,-0.724409][0.705129,0.884574,0][0.274056,-0.843456,-0.113137][-0.212598,0.653543,-0.724409][0.631166,0.884574,0][0.521284,-0.717486,-0.113137][-0.401575,0.559055,-0.724409][0.644062,0.536847,0][0.309018,-0.951058,-0.16][0.015748,-0.0393701,-1][0.56538,0.569147,0][0.274056,-0.843456,-0.113137][-0.212598,0.653543,-0.724409][0.570098,0.536847,0][0.521284,-0.717486,-0.113137][-0.401575,0.559055,-0.724409][0.644062,0.536847,0][0.587786,-0.809018,-0.16][0.023622,-0.0314961,-1][0.648779,0.569147,0][0.309018,-0.951058,-0.16][0.015748,-0.0393701,-1][0.56538,0.569147,0][0.587786,-0.809018,-0.16][0.023622,-0.0314961,-1][0.712039,0.20044,0][0.343978,-1.05866,-0.113137][0.220472,-0.692913,-0.685039][0.800155,0.168139,0][0.309018,-0.951058,-0.16][0.015748,-0.0393701,-1][0.795437,0.20044,0][0.587786,-0.809018,-0.16][0.023622,-0.0314961,-1][0.712039,0.20044,0][0.654286,-0.900548,-0.113137][0.425197,-0.590551,-0.685039][0.707321,0.168139,0][0.343978,-1.05866,-0.113137][0.220472,-0.692913,-0.685039][0.800155,0.168139,0][0.654286,-0.900548,-0.113137][0.425197,-0.590551,-0.685039][0.128826,0.148011,0][0.35846,-1.10323,0][0.307087,-0.952756,0][0.223614,0.115426,0][0.343978,-1.05866,-0.113137][0.220472,-0.692913,-0.685039][0.22166,0.148011,0][0.654286,-0.900548,-0.113137][0.425197,-0.590551,-0.685039][0.128826,0.148011,0][0.681832,-0.93846,0][0.590551,-0.811024,0][0.126872,0.115426,0][0.35846,-1.10323,0][0.307087,-0.952756,0][0.223614,0.115426,0][0.35846,-1.10323,0][0.307087,-0.952756,0][0.477486,0.0425843,0][0,-1.11314,0.113137][0,-0.724409,0.685039][0.572275,0.00999999,0][0,-1.16,0][0,-1,0][0.574229,0.0425843,0][0.35846,-1.10323,0][0.307087,-0.952756,0][0.477486,0.0425843,0][0.343978,-1.05866,0.113137][0.220472,-0.692913,0.685039][0.47944,0.00999999,0][0,-1.11314,0.113137][0,-0.724409,0.685039][0.572275,0.00999999,0][0.343978,-1.05866,0.113137][0.220472,-0.692913,0.685039][0.707321,0.253153,0][0,-1,0.16][0,-0.0393701,1][0.795437,0.220853,0][0,-1.11314,0.113137][0,-0.724409,0.685039][0.800155,0.253153,0][0.343978,-1.05866,0.113137][0.220472,-0.692913,0.685039][0.707321,0.253153,0][0.309018,-0.951058,0.16][0.015748,-0.0393701,1][0.712039,0.220853,0][0,-1,0.16][0,-0.0393701,1][0.795437,0.220853,0][0.309018,-0.951058,0.16][0.015748,-0.0393701,1][0.319325,0.641705,0][0,-0.886862,0.113137][0,0.685039,0.724409][0.240644,0.674005,0][0,-1,0.16][0,-0.0393701,1][0.235926,0.641705,0][0.309018,-0.951058,0.16][0.015748,-0.0393701,1][0.319325,0.641705,0][0.274056,-0.843456,0.113137][-0.212598,0.653543,0.724409][0.314608,0.674005,0][0,-0.886862,0.113137][0,0.685039,0.724409][0.240644,0.674005,0][0.274056,-0.843456,0.113137][-0.212598,0.653543,0.724409][0.893314,0.851989,0][0,-0.84,0][0,1,0][0.821304,0.884574,0][0,-0.886862,0.113137][0,0.685039,0.724409][0.81935,0.851989,0][0.274056,-0.843456,0.113137][-0.212598,0.653543,0.724409][0.893314,0.851989,0][0.259574,-0.798888,0][-0.307087,0.952756,0][0.891359,0.884574,0][0,-0.84,0][0,1,0][0.821304,0.884574,0][0.259574,-0.798888,0][-0.307087,0.952756,0][0.514991,0.746563,0][0,-0.886862,-0.113137][0,0.685039,-0.724409][0.442982,0.779147,0][0,-0.84,0][0,1,0][0.444936,0.746563,0][0.259574,-0.798888,0][-0.307087,0.952756,0][0.514991,0.746563,0][0.274056,-0.843456,-0.113137][-0.212598,0.653543,-0.724409][0.516945,0.779147,0][0,-0.886862,-0.113137][0,0.685039,-0.724409][0.442982,0.779147,0][0.274056,-0.843456,-0.113137][-0.212598,0.653543,-0.724409][0.738154,0.589276,0][0,-1,-0.16][0,-0.0393701,-1][0.659473,0.621576,0][0,-0.886862,-0.113137][0,0.685039,-0.724409][0.66419,0.589276,0][0.274056,-0.843456,-0.113137][-0.212598,0.653543,-0.724409][0.738154,0.589276,0][0.309018,-0.951058,-0.16][0.015748,-0.0393701,-1][0.742872,0.621576,0][0,-1,-0.16][0,-0.0393701,-1][0.659473,0.621576,0][0.309018,-0.951058,-0.16][0.015748,-0.0393701,-1][0.244552,0.464005,0][0,-1.11314,-0.113137][0,-0.724409,-0.685039][0.332669,0.431705,0][0,-1,-0.16][0,-0.0393701,-1][0.327951,0.464005,0][0.309018,-0.951058,-0.16][0.015748,-0.0393701,-1][0.244552,0.464005,0][0.343978,-1.05866,-0.113137][0.220472,-0.692913,-0.685039][0.239835,0.431705,0][0,-1.11314,-0.113137][0,-0.724409,-0.685039][0.332669,0.431705,0][0.343978,-1.05866,-0.113137][0.220472,-0.692913,-0.685039][0.245697,0.30615,0][0,-1.16,0][0,-1,0][0.340486,0.273566,0][0,-1.11314,-0.113137][0,-0.724409,-0.685039][0.338532,0.30615,0][0.343978,-1.05866,-0.113137][0.220472,-0.692913,-0.685039][0.245697,0.30615,0][0.35846,-1.10323,0][0.307087,-0.952756,0][0.243743,0.273566,0][0,-1.16,0][0,-1,0][0.340486,0.273566,0][0,-1.16,0][0,-1,0][0.477486,0.0952975,0][-0.343978,-1.05866,0.113137][-0.220472,-0.692913,0.685039][0.572275,0.0627131,0][-0.35846,-1.10323,0][-0.307087,-0.952756,0][0.574229,0.0952975,0][0,-1.16,0][0,-1,0][0.477486,0.0952975,0][0,-1.11314,0.113137][0,-0.724409,0.685039][0.47944,0.0627131,0][-0.343978,-1.05866,0.113137][-0.220472,-0.692913,0.685039][0.572275,0.0627131,0][0,-1.11314,0.113137][0,-0.724409,0.685039][0.473578,0.358579,0][-0.309018,-0.951056,0.16][-0.015748,-0.0393701,1][0.561694,0.326279,0][-0.343978,-1.05866,0.113137][-0.220472,-0.692913,0.685039][0.566412,0.358579,0][0,-1.11314,0.113137][0,-0.724409,0.685039][0.473578,0.358579,0][0,-1,0.16][0,-0.0393701,1][0.478296,0.326279,0][-0.309018,-0.951056,0.16][-0.015748,-0.0393701,1][0.561694,0.326279,0][0,-1,0.16][0,-0.0393701,1][0.662123,0.431705,0][-0.274056,-0.843456,0.113137][0.212598,0.653543,0.724409][0.583442,0.464005,0][-0.309018,-0.951056,0.16][-0.015748,-0.0393701,1][0.578724,0.431705,0][0,-1,0.16][0,-0.0393701,1][0.662123,0.431705,0][0,-0.886862,0.113137][0,0.685039,0.724409][0.657405,0.464005,0][-0.274056,-0.843456,0.113137][0.212598,0.653543,0.724409][0.583442,0.464005,0][0,-0.886862,0.113137][0,0.685039,0.724409][0.611037,0.957416,0][-0.259574,-0.798888,0][0.307087,0.952756,0][0.539028,0.99,0][-0.274056,-0.843456,0.113137][0.212598,0.653543,0.724409][0.537074,0.957416,0][0,-0.886862,0.113137][0,0.685039,0.724409][0.611037,0.957416,0][0,-0.84,0][0,1,0][0.609083,0.99,0][-0.259574,-0.798888,0][0.307087,0.952756,0][0.539028,0.99,0][0,-0.84,0][0,1,0][0.703175,0.904702,0][-0.274056,-0.843456,-0.113137][0.212598,0.653543,-0.724409][0.631166,0.937287,0][-0.259574,-0.798888,0][0.307087,0.952756,0][0.63312,0.904702,0][0,-0.84,0][0,1,0][0.703175,0.904702,0][0,-0.886862,-0.113137][0,0.685039,-0.724409][0.705129,0.937287,0][-0.274056,-0.843456,-0.113137][0.212598,0.653543,-0.724409][0.631166,0.937287,0][0,-0.886862,-0.113137][0,0.685039,-0.724409][0.201644,0.851421,0][-0.309018,-0.951056,-0.16][-0.015748,-0.0393701,-1][0.122963,0.883721,0][-0.274056,-0.843456,-0.113137][0.212598,0.653543,-0.724409][0.127681,0.851421,0][0,-0.886862,-0.113137][0,0.685039,-0.724409][0.201644,0.851421,0][0,-1,-0.16][0,-0.0393701,-1][0.206362,0.883721,0][-0.309018,-0.951056,-0.16][-0.015748,-0.0393701,-1][0.122963,0.883721,0][0,-1,-0.16][0,-0.0393701,-1][0.591259,0.358579,0][-0.343978,-1.05866,-0.113137][-0.220472,-0.692913,-0.685039][0.679375,0.326279,0][-0.309018,-0.951056,-0.16][-0.015748,-0.0393701,-1][0.674658,0.358579,0][0,-1,-0.16][0,-0.0393701,-1][0.591259,0.358579,0][0,-1.11314,-0.113137][0,-0.724409,-0.685039][0.586541,0.326279,0][-0.343978,-1.05866,-0.113137][-0.220472,-0.692913,-0.685039][0.679375,0.326279,0][0,-1.11314,-0.113137][0,-0.724409,-0.685039][0.362569,0.200724,0][-0.35846,-1.10323,0][-0.307087,-0.952756,0][0.457357,0.168139,0][-0.343978,-1.05866,-0.113137][-0.220472,-0.692913,-0.685039][0.455403,0.200724,0][0,-1.11314,-0.113137][0,-0.724409,-0.685039][0.362569,0.200724,0][0,-1.16,0][0,-1,0][0.360615,0.168139,0][-0.35846,-1.10323,0][-0.307087,-0.952756,0][0.457357,0.168139,0][-0.35846,-1.10323,0][-0.307087,-0.952756,0][0.01,0.253437,0][-0.654286,-0.900548,0.113137][-0.425197,-0.590551,0.685039][0.104789,0.220853,0][-0.681832,-0.93846,0][-0.590551,-0.811024,0][0.106743,0.253437,0][-0.35846,-1.10323,0][-0.307087,-0.952756,0][0.01,0.253437,0][-0.343978,-1.05866,0.113137][-0.220472,-0.692913,0.685039][0.0119542,0.220853,0][-0.654286,-0.900548,0.113137][-0.425197,-0.590551,0.685039][0.104789,0.220853,0][-0.343978,-1.05866,0.113137][-0.220472,-0.692913,0.685039][0.816376,0.305866,0][-0.587786,-0.809018,0.16][-0.023622,-0.0314961,1][0.904492,0.273566,0][-0.654286,-0.900548,0.113137][-0.425197,-0.590551,0.685039][0.90921,0.305866,0][-0.343978,-1.05866,0.113137][-0.220472,-0.692913,0.685039][0.816376,0.305866,0][-0.309018,-0.951056,0.16][-0.015748,-0.0393701,1][0.821093,0.273566,0][-0.587786,-0.809018,0.16][-0.023622,-0.0314961,1][0.904492,0.273566,0][-0.309018,-0.951056,0.16][-0.015748,-0.0393701,1][0.648779,0.484418,0][-0.521284,-0.717486,0.113137][0.401575,0.559055,0.724409][0.570098,0.516718,0][-0.587786,-0.809018,0.16][-0.023622,-0.0314961,1][0.56538,0.484418,0][-0.309018,-0.951056,0.16][-0.015748,-0.0393701,1][0.648779,0.484418,0][-0.274056,-0.843456,0.113137][0.212598,0.653543,0.724409][0.644062,0.516718,0][-0.521284,-0.717486,0.113137][0.401575,0.559055,0.724409][0.570098,0.516718,0][-0.274056,-0.843456,0.113137][0.212598,0.653543,0.724409][0.987406,0.851989,0][-0.49374,-0.679574,0][0.590551,0.811024,0][0.915397,0.884574,0][-0.521284,-0.717486,0.113137][0.401575,0.559055,0.724409][0.913442,0.851989,0][-0.274056,-0.843456,0.113137][0.212598,0.653543,0.724409][0.987406,0.851989,0][-0.259574,-0.798888,0][0.307087,0.952756,0][0.985452,0.884574,0][-0.49374,-0.679574,0][0.590551,0.811024,0][0.915397,0.884574,0][-0.259574,-0.798888,0][0.307087,0.952756,0][0.411463,0.957132,0][-0.521284,-0.717486,-0.113137][0.401575,0.559055,-0.724409][0.339454,0.989716,0][-0.49374,-0.679574,0][0.590551,0.811024,0][0.341408,0.957132,0][-0.259574,-0.798888,0][0.307087,0.952756,0][0.411463,0.957132,0][-0.274056,-0.843456,-0.113137][0.212598,0.653543,-0.724409][0.413417,0.989716,0][-0.521284,-0.717486,-0.113137][0.401575,0.559055,-0.724409][0.339454,0.989716,0][-0.274056,-0.843456,-0.113137][0.212598,0.653543,-0.724409][0.0886811,0.851421,0][-0.587786,-0.809018,-0.16][-0.023622,-0.0314961,-1][0.01,0.883721,0][-0.521284,-0.717486,-0.113137][0.401575,0.559055,-0.724409][0.0147178,0.851421,0][-0.274056,-0.843456,-0.113137][0.212598,0.653543,-0.724409][0.0886811,0.851421,0][-0.309018,-0.951056,-0.16][-0.015748,-0.0393701,-1][0.0933989,0.883721,0][-0.587786,-0.809018,-0.16][-0.023622,-0.0314961,-1][0.01,0.883721,0][-0.309018,-0.951056,-0.16][-0.015748,-0.0393701,-1][0.825002,0.253153,0][-0.654286,-0.900548,-0.113137][-0.425197,-0.590551,-0.685039][0.913118,0.220853,0][-0.587786,-0.809018,-0.16][-0.023622,-0.0314961,-1][0.908401,0.253153,0][-0.309018,-0.951056,-0.16][-0.015748,-0.0393701,-1][0.825002,0.253153,0][-0.343978,-1.05866,-0.113137][-0.220472,-0.692913,-0.685039][0.820284,0.220853,0][-0.654286,-0.900548,-0.113137][-0.425197,-0.590551,-0.685039][0.913118,0.220853,0][-0.343978,-1.05866,-0.113137][-0.220472,-0.692913,-0.685039][0.128826,0.358863,0][-0.681832,-0.93846,0][-0.590551,-0.811024,0][0.223614,0.326279,0][-0.654286,-0.900548,-0.113137][-0.425197,-0.590551,-0.685039][0.22166,0.358863,0][-0.343978,-1.05866,-0.113137][-0.220472,-0.692913,-0.685039][0.128826,0.358863,0][-0.35846,-1.10323,0][-0.307087,-0.952756,0][0.126872,0.326279,0][-0.681832,-0.93846,0][-0.590551,-0.811024,0][0.223614,0.326279,0][-0.681832,-0.93846,0][-0.590551,-0.811024,0][0.01,0.0425843,0][-0.900548,-0.654286,0.113137][-0.590551,-0.425197,0.685039][0.104789,0.00999999,0][-0.93846,-0.681832,0][-0.811024,-0.590551,0][0.106743,0.0425843,0][-0.681832,-0.93846,0][-0.590551,-0.811024,0][0.01,0.0425843,0][-0.654286,-0.900548,0.113137][-0.425197,-0.590551,0.685039][0.0119542,0.00999999,0][-0.900548,-0.654286,0.113137][-0.590551,-0.425197,0.685039][0.104789,0.00999999,0][-0.654286,-0.900548,0.113137][-0.425197,-0.590551,0.685039][0.01,0.726434,0][-0.809018,-0.587786,0.16][-0.0314961,-0.023622,1][0.0981166,0.694134,0][-0.900548,-0.654286,0.113137][-0.590551,-0.425197,0.685039][0.102834,0.726434,0][-0.654286,-0.900548,0.113137][-0.425197,-0.590551,0.685039][0.01,0.726434,0][-0.587786,-0.809018,0.16][-0.023622,-0.0314961,1][0.0147178,0.694134,0][-0.809018,-0.587786,0.16][-0.0314961,-0.023622,1][0.0981166,0.694134,0][-0.587786,-0.809018,0.16][-0.023622,-0.0314961,1][0.752307,0.484418,0][-0.717486,-0.521284,0.113137][0.559055,0.401575,0.724409][0.673626,0.516718,0][-0.809018,-0.587786,0.16][-0.0314961,-0.023622,1][0.668908,0.484418,0][-0.587786,-0.809018,0.16][-0.023622,-0.0314961,1][0.752307,0.484418,0][-0.521284,-0.717486,0.113137][0.401575,0.559055,0.724409][0.747589,0.516718,0][-0.717486,-0.521284,0.113137][0.559055,0.401575,0.724409][0.673626,0.516718,0][-0.521284,-0.717486,0.113137][0.401575,0.559055,0.724409][0.196927,0.90385,0][-0.679574,-0.49374,0][0.811024,0.590551,0][0.124917,0.936434,0][-0.717486,-0.521284,0.113137][0.559055,0.401575,0.724409][0.122963,0.90385,0][-0.521284,-0.717486,0.113137][0.401575,0.559055,0.724409][0.196927,0.90385,0][-0.49374,-0.679574,0][0.590551,0.811024,0][0.194972,0.936434,0][-0.679574,-0.49374,0][0.811024,0.590551,0][0.124917,0.936434,0][-0.49374,-0.679574,0][0.590551,0.811024,0][0.797267,0.746563,0][-0.717486,-0.521284,-0.113137][0.559055,0.401575,-0.724409][0.725258,0.779147,0][-0.679574,-0.49374,0][0.811024,0.590551,0][0.727212,0.746563,0][-0.49374,-0.679574,0][0.590551,0.811024,0][0.797267,0.746563,0][-0.521284,-0.717486,-0.113137][0.401575,0.559055,-0.724409][0.799222,0.779147,0][-0.717486,-0.521284,-0.113137][0.559055,0.401575,-0.724409][0.725258,0.779147,0][-0.521284,-0.717486,-0.113137][0.401575,0.559055,-0.724409][0.760933,0.431705,0][-0.809018,-0.587786,-0.16][-0.0314961,-0.023622,-1][0.682252,0.464005,0][-0.717486,-0.521284,-0.113137][0.559055,0.401575,-0.724409][0.68697,0.431705,0][-0.521284,-0.717486,-0.113137][0.401575,0.559055,-0.724409][0.760933,0.431705,0][-0.587786,-0.809018,-0.16][-0.023622,-0.0314961,-1][0.765651,0.464005,0][-0.809018,-0.587786,-0.16][-0.0314961,-0.023622,-1][0.682252,0.464005,0][-0.587786,-0.809018,-0.16][-0.023622,-0.0314961,-1][0.832818,0.0950133,0][-0.900548,-0.654286,-0.113137][-0.590551,-0.425197,-0.685039][0.920935,0.0627131,0][-0.809018,-0.587786,-0.16][-0.0314961,-0.023622,-1][0.916217,0.0950133,0][-0.587786,-0.809018,-0.16][-0.023622,-0.0314961,-1][0.832818,0.0950133,0][-0.654286,-0.900548,-0.113137][-0.425197,-0.590551,-0.685039][0.828101,0.0627132,0][-0.900548,-0.654286,-0.113137][-0.590551,-0.425197,-0.685039][0.920935,0.0627131,0][-0.654286,-0.900548,-0.113137][-0.425197,-0.590551,-0.685039][0.362569,0.253437,0][-0.93846,-0.681832,0][-0.811024,-0.590551,0][0.457357,0.220853,0][-0.900548,-0.654286,-0.113137][-0.590551,-0.425197,-0.685039][0.455403,0.253437,0][-0.654286,-0.900548,-0.113137][-0.425197,-0.590551,-0.685039][0.362569,0.253437,0][-0.681832,-0.93846,0][-0.590551,-0.811024,0][0.360615,0.220853,0][-0.93846,-0.681832,0][-0.811024,-0.590551,0][0.457357,0.220853,0][-0.93846,-0.681832,0][-0.811024,-0.590551,0][0.594358,0.0425843,0][-1.05866,-0.343978,0.113137][-0.692913,-0.220472,0.685039][0.689146,0.00999999,0][-1.10323,-0.35846,0][-0.952756,-0.307087,0][0.6911,0.0425843,0][-0.93846,-0.681832,0][-0.811024,-0.590551,0][0.594358,0.0425843,0][-0.900548,-0.654286,0.113137][-0.590551,-0.425197,0.685039][0.596312,0.00999999,0][-1.05866,-0.343978,0.113137][-0.692913,-0.220472,0.685039][0.689146,0.00999999,0][-0.900548,-0.654286,0.113137][-0.590551,-0.425197,0.685039][0.465761,0.464005,0][-0.951058,-0.309018,0.16][-0.0393701,-0.015748,1][0.553878,0.431705,0][-1.05866,-0.343978,0.113137][-0.692913,-0.220472,0.685039][0.558595,0.464005,0][-0.900548,-0.654286,0.113137][-0.590551,-0.425197,0.685039][0.465761,0.464005,0][-0.809018,-0.587786,0.16][-0.0314961,-0.023622,1][0.470479,0.431705,0][-0.951058,-0.309018,0.16][-0.0393701,-0.015748,1][0.553878,0.431705,0][-0.809018,-0.587786,0.16][-0.0314961,-0.023622,1][0.319325,0.694134,0][-0.843456,-0.274056,0.113137][0.653543,0.212598,0.724409][0.240644,0.726434,0][-0.951058,-0.309018,0.16][-0.0393701,-0.015748,1][0.235926,0.694134,0][-0.809018,-0.587786,0.16][-0.0314961,-0.023622,1][0.319325,0.694134,0][-0.717486,-0.521284,0.113137][0.559055,0.401575,0.724409][0.314608,0.726434,0][-0.843456,-0.274056,0.113137][0.653543,0.212598,0.724409][0.240644,0.726434,0][-0.717486,-0.521284,0.113137][0.559055,0.401575,0.724409][0.799222,0.904702,0][-0.798888,-0.259574,0][0.952756,0.307087,0][0.727212,0.937287,0][-0.843456,-0.274056,0.113137][0.653543,0.212598,0.724409][0.725258,0.904702,0][-0.717486,-0.521284,0.113137][0.559055,0.401575,0.724409][0.799222,0.904702,0][-0.679574,-0.49374,0][0.811024,0.590551,0][0.797267,0.937287,0][-0.798888,-0.259574,0][0.952756,0.307087,0][0.727212,0.937287,0][-0.679574,-0.49374,0][0.811024,0.590551,0][0.514991,0.799276,0][-0.843456,-0.274056,-0.113137][0.653543,0.212598,-0.724409][0.442982,0.831861,0][-0.798888,-0.259574,0][0.952756,0.307087,0][0.444936,0.799276,0][-0.679574,-0.49374,0][0.811024,0.590551,0][0.514991,0.799276,0][-0.717486,-0.521284,-0.113137][0.559055,0.401575,-0.724409][0.516945,0.831861,0][-0.843456,-0.274056,-0.113137][0.653543,0.212598,-0.724409][0.442982,0.831861,0][-0.717486,-0.521284,-0.113137][0.559055,0.401575,-0.724409][0.0886811,0.90385,0][-0.951058,-0.309018,-0.16][-0.0393701,-0.015748,-1][0.01,0.93615,0][-0.843456,-0.274056,-0.113137][0.653543,0.212598,-0.724409][0.0147178,0.90385,0][-0.717486,-0.521284,-0.113137][0.559055,0.401575,-0.724409][0.0886811,0.90385,0][-0.809018,-0.587786,-0.16][-0.0314961,-0.023622,-1][0.0933989,0.93615,0][-0.951058,-0.309018,-0.16][-0.0393701,-0.015748,-1][0.01,0.93615,0][-0.809018,-0.587786,-0.16][-0.0314961,-0.023622,-1][0.131589,0.464005,0][-1.05866,-0.343978,-0.113137][-0.692913,-0.220472,-0.685039][0.219706,0.431705,0][-0.951058,-0.309018,-0.16][-0.0393701,-0.015748,-1][0.214988,0.464005,0][-0.809018,-0.587786,-0.16][-0.0314961,-0.023622,-1][0.131589,0.464005,0][-0.900548,-0.654286,-0.113137][-0.590551,-0.425197,-0.685039][0.126872,0.431705,0][-1.05866,-0.343978,-0.113137][-0.692913,-0.220472,-0.685039][0.219706,0.431705,0][-0.900548,-0.654286,-0.113137][-0.590551,-0.425197,-0.685039][0.128826,0.411576,0][-1.10323,-0.35846,0][-0.952756,-0.307087,0][0.223614,0.378992,0][-1.05866,-0.343978,-0.113137][-0.692913,-0.220472,-0.685039][0.22166,0.411576,0][-0.900548,-0.654286,-0.113137][-0.590551,-0.425197,-0.685039][0.128826,0.411576,0][-0.93846,-0.681832,0][-0.811024,-0.590551,0][0.126871,0.378992,0][-1.10323,-0.35846,0][-0.952756,-0.307087,0][0.223614,0.378992,0][-1.10323,-0.35846,0][-0.952756,-0.307087,0][0.01,0.200724,0][-1.11314,0,0.113137][-0.724409,0,0.685039][0.104789,0.168139,0][-1.16,0,0][-1,0,0][0.106743,0.200724,0][-1.10323,-0.35846,0][-0.952756,-0.307087,0][0.01,0.200724,0][-1.05866,-0.343978,0.113137][-0.692913,-0.220472,0.685039][0.0119542,0.168139,0][-1.11314,0,0.113137][-0.724409,0,0.685039][0.104789,0.168139,0][-1.05866,-0.343978,0.113137][-0.692913,-0.220472,0.685039][0.703413,0.305866,0][-1,0,0.16][-0.0393701,0,1][0.791529,0.273566,0][-1.11314,0,0.113137][-0.724409,0,0.685039][0.796247,0.305866,0][-1.05866,-0.343978,0.113137][-0.692913,-0.220472,0.685039][0.703413,0.305866,0][-0.951058,-0.309018,0.16][-0.0393701,-0.015748,1][0.70813,0.273566,0][-1,0,0.16][-0.0393701,0,1][0.791529,0.273566,0][-0.951058,-0.309018,0.16][-0.0393701,-0.015748,1][0.206362,0.694134,0][-0.886862,0,0.113137][0.685039,0,0.724409][0.127681,0.726434,0][-1,0,0.16][-0.0393701,0,1][0.122963,0.694134,0][-0.951058,-0.309018,0.16][-0.0393701,-0.015748,1][0.206362,0.694134,0][-0.843456,-0.274056,0.113137][0.653543,0.212598,0.724409][0.201644,0.726434,0][-0.886862,0,0.113137][0.685039,0,0.724409][0.127681,0.726434,0][-0.843456,-0.274056,0.113137][0.653543,0.212598,0.724409][0.413417,0.904418,0][-0.84,0,0][1,0,0][0.341408,0.937003,0][-0.886862,0,0.113137][0.685039,0,0.724409][0.339454,0.904418,0][-0.843456,-0.274056,0.113137][0.653543,0.212598,0.724409][0.413417,0.904418,0][-0.798888,-0.259574,0][0.952756,0.307087,0][0.411463,0.937003,0][-0.84,0,0][1,0,0][0.341408,0.937003,0][-0.798888,-0.259574,0][0.952756,0.307087,0][0.797267,0.799276,0][-0.886862,0,-0.113137][0.685039,0,-0.724409][0.725258,0.831861,0][-0.84,0,0][1,0,0][0.727212,0.799276,0][-0.798888,-0.259574,0][0.952756,0.307087,0][0.797267,0.799276,0][-0.843456,-0.274056,-0.113137][0.653543,0.212598,-0.724409][0.799222,0.831861,0][-0.886862,0,-0.113137][0.685039,0,-0.724409][0.725258,0.831861,0][-0.843456,-0.274056,-0.113137][0.653543,0.212598,-0.724409][0.954645,0.484418,0][-1,0,-0.16][-0.0393701,0,-1][0.875963,0.516718,0][-0.886862,0,-0.113137][0.685039,0,-0.724409][0.880681,0.484418,0][-0.843456,-0.274056,-0.113137][0.653543,0.212598,-0.724409][0.954645,0.484418,0][-0.951058,-0.309018,-0.16][-0.0393701,-0.015748,-1][0.959362,0.516718,0][-1,0,-0.16][-0.0393701,0,-1][0.875963,0.516718,0][-0.951058,-0.309018,-0.16][-0.0393701,-0.015748,-1][0.0147178,0.569147,0][-1.11314,0,-0.113137][-0.724409,0,-0.685039][0.102834,0.536847,0][-1,0,-0.16][-0.0393701,0,-1][0.0981166,0.569147,0][-0.951058,-0.309018,-0.16][-0.0393701,-0.015748,-1][0.0147178,0.569147,0][-1.05866,-0.343978,-0.113137][-0.692913,-0.220472,-0.685039][0.01,0.536847,0][-1.11314,0,-0.113137][-0.724409,0,-0.685039][0.102834,0.536847,0][-1.05866,-0.343978,-0.113137][-0.692913,-0.220472,-0.685039][0.362569,0.148011,0][-1.16,0,0][-1,0,0][0.457357,0.115426,0][-1.11314,0,-0.113137][-0.724409,0,-0.685039][0.455403,0.148011,0][-1.05866,-0.343978,-0.113137][-0.692913,-0.220472,-0.685039][0.362569,0.148011,0][-1.10323,-0.35846,0][-0.952756,-0.307087,0][0.360615,0.115426,0][-1.16,0,0][-1,0,0][0.457357,0.115426,0][-1.16,0,0][-1,0,0][0.360615,0.0425843,0][-1.05866,0.343978,0.113137][-0.692913,0.220472,0.685039][0.455403,0.00999999,0][-1.10323,0.35846,0][-0.952756,0.307087,0][0.457357,0.0425843,0][-1.16,0,0][-1,0,0][0.360615,0.0425843,0][-1.11314,0,0.113137][-0.724409,0,0.685039][0.362569,0.00999999,0][-1.05866,0.343978,0.113137][-0.692913,0.220472,0.685039][0.455403,0.00999999,0][-1.11314,0,0.113137][-0.724409,0,0.685039][0.707321,0.147726,0][-0.951056,0.309018,0.16][-0.0393701,0.015748,1][0.795437,0.115426,0][-1.05866,0.343978,0.113137][-0.692913,0.220472,0.685039][0.800155,0.147726,0][-1.11314,0,0.113137][-0.724409,0,0.685039][0.707321,0.147726,0][-1,0,0.16][-0.0393701,0,1][0.712039,0.115426,0][-0.951056,0.309018,0.16][-0.0393701,0.015748,1][0.795437,0.115426,0][-1,0,0.16][-0.0393701,0,1][0.545252,0.536847,0][-0.843456,0.274056,0.113137][0.653543,-0.212598,0.724409][0.46657,0.569147,0][-0.951056,0.309018,0.16][-0.0393701,0.015748,1][0.461853,0.536847,0][-1,0,0.16][-0.0393701,0,1][0.545252,0.536847,0][-0.886862,0,0.113137][0.685039,0,0.724409][0.540534,0.569147,0][-0.843456,0.274056,0.113137][0.653543,-0.212598,0.724409][0.46657,0.569147,0][-0.886862,0,0.113137][0.685039,0,0.724409][0.705129,0.746563,0][-0.798888,0.259574,0][0.952756,-0.307087,0][0.63312,0.779147,0][-0.843456,0.274056,0.113137][0.653543,-0.212598,0.724409][0.631166,0.746563,0][-0.886862,0,0.113137][0.685039,0,0.724409][0.705129,0.746563,0][-0.84,0,0][1,0,0][0.703175,0.779147,0][-0.798888,0.259574,0][0.952756,-0.307087,0][0.63312,0.779147,0][-0.84,0,0][1,0,0][0.609083,0.799276,0][-0.843456,0.274056,-0.113137][0.653543,-0.212598,-0.724409][0.537074,0.83186,0][-0.798888,0.259574,0][0.952756,-0.307087,0][0.539028,0.799276,0][-0.84,0,0][1,0,0][0.609083,0.799276,0][-0.886862,0,-0.113137][0.685039,0,-0.724409][0.611037,0.83186,0][-0.843456,0.274056,-0.113137][0.653543,-0.212598,-0.724409][0.537074,0.83186,0][-0.886862,0,-0.113137][0.685039,0,-0.724409][0.967989,0.431705,0][-0.951056,0.309018,-0.16][-0.0393701,0.015748,-1][0.889307,0.464005,0][-0.843456,0.274056,-0.113137][0.653543,-0.212598,-0.724409][0.894025,0.431705,0][-0.886862,0,-0.113137][0.685039,0,-0.724409][0.967989,0.431705,0][-1,0,-0.16][-0.0393701,0,-1][0.972706,0.464005,0][-0.951056,0.309018,-0.16][-0.0393701,0.015748,-1][0.889307,0.464005,0][-1,0,-0.16][-0.0393701,0,-1][0.825002,0.147726,0][-1.05866,0.343978,-0.113137][-0.692913,0.220472,-0.685039][0.913118,0.115426,0][-0.951056,0.309018,-0.16][-0.0393701,0.015748,-1][0.908401,0.147726,0][-1,0,-0.16][-0.0393701,0,-1][0.825002,0.147726,0][-1.11314,0,-0.113137][-0.724409,0,-0.685039][0.820284,0.115426,0][-1.05866,0.343978,-0.113137][-0.692913,0.220472,-0.685039][0.913118,0.115426,0][-1.11314,0,-0.113137][-0.724409,0,-0.685039][0.713183,0.0425843,0][-1.10323,0.35846,0][-0.952756,0.307087,0][0.807972,0.00999999,0][-1.05866,0.343978,-0.113137][-0.692913,0.220472,-0.685039][0.806018,0.0425843,0][-1.11314,0,-0.113137][-0.724409,0,-0.685039][0.713183,0.0425843,0][-1.16,0,0][-1,0,0][0.711229,0.00999999,0][-1.10323,0.35846,0][-0.952756,0.307087,0][0.807972,0.00999999,0][-1.10323,0.35846,0][-0.952756,0.307087,0][0.243743,0.0952975,0][-0.900548,0.654286,0.113137][-0.590551,0.425197,0.685039][0.338532,0.0627131,0][-0.93846,0.681832,0][-0.811024,0.590551,0][0.340486,0.0952975,0][-1.10323,0.35846,0][-0.952756,0.307087,0][0.243743,0.0952975,0][-1.05866,0.343978,0.113137][-0.692913,0.220472,0.685039][0.245697,0.0627131,0][-0.900548,0.654286,0.113137][-0.590551,0.425197,0.685039][0.338532,0.0627131,0][-1.05866,0.343978,0.113137][-0.692913,0.220472,0.685039][0.122963,0.674005,0][-0.809018,0.587786,0.16][-0.0314961,0.023622,1][0.21108,0.641705,0][-0.900548,0.654286,0.113137][-0.590551,0.425197,0.685039][0.215798,0.674005,0][-1.05866,0.343978,0.113137][-0.692913,0.220472,0.685039][0.122963,0.674005,0][-0.951056,0.309018,0.16][-0.0393701,0.015748,1][0.127681,0.641705,0][-0.809018,0.587786,0.16][-0.0314961,0.023622,1][0.21108,0.641705,0][-0.951056,0.309018,0.16][-0.0393701,0.015748,1][0.0933989,0.798992,0][-0.717486,0.521284,0.113137][0.559055,-0.401575,0.724409][0.0147178,0.831292,0][-0.809018,0.587786,0.16][-0.0314961,0.023622,1][0.01,0.798992,0][-0.951056,0.309018,0.16][-0.0393701,0.015748,1][0.0933989,0.798992,0][-0.843456,0.274056,0.113137][0.653543,-0.212598,0.724409][0.0886811,0.831292,0][-0.717486,0.521284,0.113137][0.559055,-0.401575,0.724409][0.0147178,0.831292,0][-0.843456,0.274056,0.113137][0.653543,-0.212598,0.724409][0.516945,0.957416,0][-0.679574,0.49374,0][0.811024,-0.590551,0][0.444936,0.99,0][-0.717486,0.521284,0.113137][0.559055,-0.401575,0.724409][0.442982,0.957416,0][-0.843456,0.274056,0.113137][0.653543,-0.212598,0.724409][0.516945,0.957416,0][-0.798888,0.259574,0][0.952756,-0.307087,0][0.514991,0.99,0][-0.679574,0.49374,0][0.811024,-0.590551,0][0.444936,0.99,0][-0.798888,0.259574,0][0.952756,-0.307087,0][0.307936,0.851421,0][-0.717486,0.521284,-0.113137][0.559055,-0.401575,-0.724409][0.235926,0.884005,0][-0.679574,0.49374,0][0.811024,-0.590551,0][0.237881,0.851421,0][-0.798888,0.259574,0][0.952756,-0.307087,0][0.307936,0.851421,0][-0.843456,0.274056,-0.113137][0.653543,-0.212598,-0.724409][0.30989,0.884005,0][-0.717486,0.521284,-0.113137][0.559055,-0.401575,-0.724409][0.235926,0.884005,0][-0.843456,0.274056,-0.113137][0.653543,-0.212598,-0.724409][0.314608,0.746563,0][-0.809018,0.587786,-0.16][-0.0314961,0.023622,-1][0.235926,0.778863,0][-0.717486,0.521284,-0.113137][0.559055,-0.401575,-0.724409][0.240644,0.746563,0][-0.843456,0.274056,-0.113137][0.653543,-0.212598,-0.724409][0.314608,0.746563,0][-0.951056,0.309018,-0.16][-0.0393701,0.015748,-1][0.319325,0.778863,0][-0.809018,0.587786,-0.16][-0.0314961,0.023622,-1][0.235926,0.778863,0][-0.951056,0.309018,-0.16][-0.0393701,0.015748,-1][0.0147178,0.674005,0][-0.900548,0.654286,-0.113137][-0.590551,0.425197,-0.685039][0.102834,0.641705,0][-0.809018,0.587786,-0.16][-0.0314961,0.023622,-1][0.0981166,0.674005,0][-0.951056,0.309018,-0.16][-0.0393701,0.015748,-1][0.0147178,0.674005,0][-1.05866,0.343978,-0.113137][-0.692913,0.220472,-0.685039][0.01,0.641705,0][-0.900548,0.654286,-0.113137][-0.590551,0.425197,-0.685039][0.102834,0.641705,0][-1.05866,0.343978,-0.113137][-0.692913,0.220472,-0.685039][0.245697,0.148011,0][-0.93846,0.681832,0][-0.811024,0.590551,0][0.340486,0.115426,0][-0.900548,0.654286,-0.113137][-0.590551,0.425197,-0.685039][0.338532,0.148011,0][-1.05866,0.343978,-0.113137][-0.692913,0.220472,-0.685039][0.245697,0.148011,0][-1.10323,0.35846,0][-0.952756,0.307087,0][0.243743,0.115426,0][-0.93846,0.681832,0][-0.811024,0.590551,0][0.340486,0.115426,0][-0.93846,0.681832,0][-0.811024,0.590551,0][0.243743,0.0425843,0][-0.654286,0.900548,0.113137][-0.425197,0.590551,0.685039][0.338532,0.00999999,0][-0.681832,0.93846,0][-0.590551,0.811024,0][0.340486,0.0425843,0][-0.93846,0.681832,0][-0.811024,0.590551,0][0.243743,0.0425843,0][-0.900548,0.654286,0.113137][-0.590551,0.425197,0.685039][0.245697,0.00999999,0][-0.654286,0.900548,0.113137][-0.425197,0.590551,0.685039][0.338532,0.00999999,0][-0.900548,0.654286,0.113137][-0.590551,0.425197,0.685039][0.34889,0.516718,0][-0.587786,0.809018,0.16][-0.023622,0.0314961,1][0.437006,0.484418,0][-0.654286,0.900548,0.113137][-0.425197,0.590551,0.685039][0.441724,0.516718,0][-0.900548,0.654286,0.113137][-0.590551,0.425197,0.685039][0.34889,0.516718,0][-0.809018,0.587786,0.16][-0.0314961,0.023622,1][0.353607,0.484418,0][-0.587786,0.809018,0.16][-0.023622,0.0314961,1][0.437006,0.484418,0][-0.809018,0.587786,0.16][-0.0314961,0.023622,1][0.752307,0.536847,0][-0.521284,0.717486,0.113137][0.401575,-0.559055,0.724409][0.673626,0.569147,0][-0.587786,0.809018,0.16][-0.023622,0.0314961,1][0.668908,0.536847,0][-0.809018,0.587786,0.16][-0.0314961,0.023622,1][0.752307,0.536847,0][-0.717486,0.521284,0.113137][0.559055,-0.401575,0.724409][0.747589,0.569147,0][-0.521284,0.717486,0.113137][0.401575,-0.559055,0.724409][0.673626,0.569147,0][-0.717486,0.521284,0.113137][0.559055,-0.401575,0.724409][0.611037,0.904702,0][-0.49374,0.679574,0][0.590551,-0.811024,0][0.539028,0.937287,0][-0.521284,0.717486,0.113137][0.401575,-0.559055,0.724409][0.537074,0.904702,0][-0.717486,0.521284,0.113137][0.559055,-0.401575,0.724409][0.611037,0.904702,0][-0.679574,0.49374,0][0.811024,-0.590551,0][0.609083,0.937287,0][-0.49374,0.679574,0][0.590551,-0.811024,0][0.539028,0.937287,0][-0.679574,0.49374,0][0.811024,-0.590551,0][0.985452,0.746563,0][-0.521284,0.717486,-0.113137][0.401575,-0.559055,-0.724409][0.913442,0.779147,0][-0.49374,0.679574,0][0.590551,-0.811024,0][0.915397,0.746563,0][-0.679574,0.49374,0][0.811024,-0.590551,0][0.985452,0.746563,0][-0.717486,0.521284,-0.113137][0.559055,-0.401575,-0.724409][0.987406,0.779147,0][-0.521284,0.717486,-0.113137][0.401575,-0.559055,-0.724409][0.913442,0.779147,0][-0.717486,0.521284,-0.113137][0.559055,-0.401575,-0.724409][0.851117,0.484418,0][-0.587786,0.809018,-0.16][-0.023622,0.0314961,-1][0.772436,0.516718,0][-0.521284,0.717486,-0.113137][0.401575,-0.559055,-0.724409][0.777154,0.484418,0][-0.717486,0.521284,-0.113137][0.559055,-0.401575,-0.724409][0.851117,0.484418,0][-0.809018,0.587786,-0.16][-0.0314961,0.023622,-1][0.855835,0.516718,0][-0.587786,0.809018,-0.16][-0.023622,0.0314961,-1][0.772436,0.516718,0][-0.809018,0.587786,-0.16][-0.0314961,0.023622,-1][0.0147178,0.516718,0][-0.654286,0.900548,-0.113137][-0.425197,0.590551,-0.685039][0.102834,0.484418,0][-0.587786,0.809018,-0.16][-0.023622,0.0314961,-1][0.0981166,0.516718,0][-0.809018,0.587786,-0.16][-0.0314961,0.023622,-1][0.0147178,0.516718,0][-0.900548,0.654286,-0.113137][-0.590551,0.425197,-0.685039][0.01,0.484418,0][-0.654286,0.900548,-0.113137][-0.425197,0.590551,-0.685039][0.102834,0.484418,0][-0.900548,0.654286,-0.113137][-0.590551,0.425197,-0.685039][0.0119542,0.358863,0][-0.681832,0.93846,0][-0.590551,0.811024,0][0.106743,0.326279,0][-0.654286,0.900548,-0.113137][-0.425197,0.590551,-0.685039][0.104789,0.358863,0][-0.900548,0.654286,-0.113137][-0.590551,0.425197,-0.685039][0.0119542,0.358863,0][-0.93846,0.681832,0][-0.811024,0.590551,0][0.01,0.326279,0][-0.681832,0.93846,0][-0.590551,0.811024,0][0.106743,0.326279,0][-0.681832,0.93846,0][-0.590551,0.811024,0][0.01,0.30615,0][-0.343978,1.05866,0.113137][-0.220472,0.692913,0.685039][0.104789,0.273566,0][-0.35846,1.10323,0][-0.307087,0.952756,0][0.106743,0.30615,0][-0.681832,0.93846,0][-0.590551,0.811024,0][0.01,0.30615,0][-0.654286,0.900548,0.113137][-0.425197,0.590551,0.685039][0.0119542,0.273566,0][-0.343978,1.05866,0.113137][-0.220472,0.692913,0.685039][0.104789,0.273566,0][-0.654286,0.900548,0.113137][-0.425197,0.590551,0.685039][0.469669,0.411292,0][-0.309018,0.951058,0.16][-0.015748,0.0393701,1][0.557786,0.378992,0][-0.343978,1.05866,0.113137][-0.220472,0.692913,0.685039][0.562504,0.411292,0][-0.654286,0.900548,0.113137][-0.425197,0.590551,0.685039][0.469669,0.411292,0][-0.587786,0.809018,0.16][-0.023622,0.0314961,1][0.474387,0.378992,0][-0.309018,0.951058,0.16][-0.015748,0.0393701,1][0.557786,0.378992,0][-0.587786,0.809018,0.16][-0.023622,0.0314961,1][0.432288,0.589276,0][-0.274056,0.843456,0.113137][0.212598,-0.653543,0.724409][0.353607,0.621576,0][-0.309018,0.951058,0.16][-0.015748,0.0393701,1][0.34889,0.589276,0][-0.587786,0.809018,0.16][-0.023622,0.0314961,1][0.432288,0.589276,0][-0.521284,0.717486,0.113137][0.401575,-0.559055,0.724409][0.427571,0.621576,0][-0.274056,0.843456,0.113137][0.212598,-0.653543,0.724409][0.353607,0.621576,0][-0.521284,0.717486,0.113137][0.401575,-0.559055,0.724409][0.987406,0.799276,0][-0.259574,0.798888,0][0.307087,-0.952756,0][0.915397,0.831861,0][-0.274056,0.843456,0.113137][0.212598,-0.653543,0.724409][0.913442,0.799276,0][-0.521284,0.717486,0.113137][0.401575,-0.559055,0.724409][0.987406,0.799276,0][-0.49374,0.679574,0][0.590551,-0.811024,0][0.985452,0.831861,0][-0.259574,0.798888,0][0.307087,-0.952756,0][0.915397,0.831861,0][-0.49374,0.679574,0][0.590551,-0.811024,0][0.194972,0.956563,0][-0.274056,0.843456,-0.113137][0.212598,-0.653543,-0.724409][0.122963,0.989147,0][-0.259574,0.798888,0][0.307087,-0.952756,0][0.124917,0.956563,0][-0.49374,0.679574,0][0.590551,-0.811024,0][0.194972,0.956563,0][-0.521284,0.717486,-0.113137][0.401575,-0.559055,-0.724409][0.196927,0.989147,0][-0.274056,0.843456,-0.113137][0.212598,-0.653543,-0.724409][0.122963,0.989147,0][-0.521284,0.717486,-0.113137][0.401575,-0.559055,-0.724409][0.314608,0.798992,0][-0.309018,0.951058,-0.16][-0.015748,0.0393701,-1][0.235926,0.831292,0][-0.274056,0.843456,-0.113137][0.212598,-0.653543,-0.724409][0.240644,0.798992,0][-0.521284,0.717486,-0.113137][0.401575,-0.559055,-0.724409][0.314608,0.798992,0][-0.587786,0.809018,-0.16][-0.023622,0.0314961,-1][0.319325,0.831292,0][-0.309018,0.951058,-0.16][-0.015748,0.0393701,-1][0.235926,0.831292,0][-0.587786,0.809018,-0.16][-0.023622,0.0314961,-1][0.599075,0.20044,0][-0.343978,1.05866,-0.113137][-0.220472,0.692913,-0.685039][0.687192,0.168139,0][-0.309018,0.951058,-0.16][-0.015748,0.0393701,-1][0.682474,0.20044,0][-0.587786,0.809018,-0.16][-0.023622,0.0314961,-1][0.599075,0.20044,0][-0.654286,0.900548,-0.113137][-0.425197,0.590551,-0.685039][0.594358,0.168139,0][-0.343978,1.05866,-0.113137][-0.220472,0.692913,-0.685039][0.687192,0.168139,0][-0.654286,0.900548,-0.113137][-0.425197,0.590551,-0.685039][0.713183,0.0952975,0][-0.35846,1.10323,0][-0.307087,0.952756,0][0.807972,0.0627131,0][-0.343978,1.05866,-0.113137][-0.220472,0.692913,-0.685039][0.806018,0.0952975,0][-0.654286,0.900548,-0.113137][-0.425197,0.590551,-0.685039][0.713183,0.0952975,0][-0.681832,0.93846,0][-0.590551,0.811024,0][0.711229,0.0627131,0][-0.35846,1.10323,0][-0.307087,0.952756,0][0.807972,0.0627131,0][-0.35846,1.10323,0][-0.307087,0.952756,0][0.360615,0.30615,0][0,1.11314,0.113137][0,0.724409,0.685039][0.455403,0.273566,0][0,1.16,0][0,1,0][0.457357,0.30615,0][-0.35846,1.10323,0][-0.307087,0.952756,0][0.360615,0.30615,0][-0.343978,1.05866,0.113137][-0.220472,0.692913,0.685039][0.362569,0.273566,0][0,1.11314,0.113137][0,0.724409,0.685039][0.455403,0.273566,0][-0.343978,1.05866,0.113137][-0.220472,0.692913,0.685039][0.235926,0.621576,0][0,1,0.16][0,0.0393701,1][0.324043,0.589276,0][0,1.11314,0.113137][0,0.724409,0.685039][0.328761,0.621576,0][-0.343978,1.05866,0.113137][-0.220472,0.692913,0.685039][0.235926,0.621576,0][-0.309018,0.951058,0.16][-0.015748,0.0393701,1][0.240644,0.589276,0][0,1,0.16][0,0.0393701,1][0.324043,0.589276,0][-0.309018,0.951058,0.16][-0.015748,0.0393701,1][0.422853,0.746563,0][0,0.886862,0.113137][0,-0.685039,0.724409][0.344172,0.778863,0][0,1,0.16][0,0.0393701,1][0.339454,0.746563,0][-0.309018,0.951058,0.16][-0.015748,0.0393701,1][0.422853,0.746563,0][-0.274056,0.843456,0.113137][0.212598,-0.653543,0.724409][0.418135,0.778863,0][0,0.886862,0.113137][0,-0.685039,0.724409][0.344172,0.778863,0][-0.274056,0.843456,0.113137][0.212598,-0.653543,0.724409][0.987406,0.904702,0][0,0.84,0][0,-1,0][0.915397,0.937287,0][0,0.886862,0.113137][0,-0.685039,0.724409][0.913442,0.904702,0][-0.274056,0.843456,0.113137][0.212598,-0.653543,0.724409][0.987406,0.904702,0][-0.259574,0.798888,0][0.307087,-0.952756,0][0.985452,0.937287,0][0,0.84,0][0,-1,0][0.915397,0.937287,0][-0.259574,0.798888,0][0.307087,-0.952756,0][0.985452,0.957416,0][0,0.886862,-0.113137][0,-0.685039,-0.724409][0.913442,0.99,0][0,0.84,0][0,-1,0][0.915397,0.957416,0][-0.259574,0.798888,0][0.307087,-0.952756,0][0.985452,0.957416,0][-0.274056,0.843456,-0.113137][0.212598,-0.653543,-0.724409][0.987406,0.99,0][0,0.886862,-0.113137][0,-0.685039,-0.724409][0.913442,0.99,0][-0.274056,0.843456,-0.113137][0.212598,-0.653543,-0.724409][0.0886811,0.956279,0][0,1,-0.16][0,0.0393701,-1][0.01,0.988579,0][0,0.886862,-0.113137][0,-0.685039,-0.724409][0.0147178,0.956279,0][-0.274056,0.843456,-0.113137][0.212598,-0.653543,-0.724409][0.0886811,0.956279,0][-0.309018,0.951058,-0.16][-0.015748,0.0393701,-1][0.0933988,0.988579,0][0,1,-0.16][0,0.0393701,-1][0.01,0.988579,0][-0.309018,0.951058,-0.16][-0.015748,0.0393701,-1][0.353607,0.569147,0][0,1.11314,-0.113137][0,0.724409,-0.685039][0.441724,0.536847,0][0,1,-0.16][0,0.0393701,-1][0.437006,0.569147,0][-0.309018,0.951058,-0.16][-0.015748,0.0393701,-1][0.353607,0.569147,0][-0.343978,1.05866,-0.113137][-0.220472,0.692913,-0.685039][0.34889,0.536847,0][0,1.11314,-0.113137][0,0.724409,-0.685039][0.441724,0.536847,0][-0.343978,1.05866,-0.113137][-0.220472,0.692913,-0.685039][0.47944,0.253437,0][0,1.16,0][0,1,0][0.574229,0.220853,0][0,1.11314,-0.113137][0,0.724409,-0.685039][0.572275,0.253437,0][-0.343978,1.05866,-0.113137][-0.220472,0.692913,-0.685039][0.47944,0.253437,0][-0.35846,1.10323,0][-0.307087,0.952756,0][0.477486,0.220853,0][0,1.16,0][0,1,0][0.574229,0.220853,0]